<svg xmlns="http://www.w3.org/2000/svg" id="phone" viewBox="0 0 20 20"><defs><style>*{fill:#0392a1}</style></defs><path d="M20 8.9c0-.1-.3-2.6-3.3-5.6S11.2 0 11.1 0v1.5H11s.5 0 1.3.4 2 1.1 3.3 2.4 2.1 2.6 2.4 3.3c.4.8.4 1.3.4 1.3l1.5-.1ZM14.3 5.7c-1.6-1.6-2.7-2-2.9-2L11 5.2s.9.3 2.2 1.6S14.8 9 14.8 9l1.5-.4c0-.1-.4-1.3-2-2.9M16.2 12.4l-1.2-.7c-1.4-.8-3.1-.5-4.3.7 0 0-.2.1-.4.1-.5 0-1.1-.4-1.7-1s-1-1.2-1-1.7c0-.3 0-.4.1-.4 1.2-1.2 1.5-3 .7-4.3l-.7-1.2C7.2 3 6.3 2.3 5.2 2.2 4 2 2.8 2.5 1.9 3.4.7 4.4 0 5.6 0 6.8c0 1.4.2 2.7.6 4.1q1.05 2.7 3.3 5.1c2.25 2.4 3.3 2.7 5.1 3.3 1.2.4 2.5.7 3.7.7h.4c1.2 0 2.4-.7 3.6-1.8.9-.9 1.3-2.1 1.2-3.3-.2-1.1-.8-2-1.7-2.5m-.5 4.7c-.6.6-1.5 1.3-2.6 1.3-2 0-5-.5-8-3.5-3.1-3.1-3.6-6.1-3.5-8 0-1 .8-2 1.3-2.6.5-.5 1.1-.7 1.7-.7h.3c.6 0 1.1.4 1.4.9L7 5.7c.4.8.2 1.8-.5 2.5 0 0-.5.5-.5 1.3q0 1.5 1.5 3c1 1 1.9 1.5 2.9 1.5h.1c.8 0 1.3-.5 1.3-.5.7-.7 1.7-.9 2.5-.5l1.2.7c.5.3.9.8.9 1.4 0 .7-.2 1.5-.7 2" class="st0"/></svg>